
		<svg xmlns="http://www.w3.org/2000/svg" xmlns:xlink="http://www.w3.org/1999/xlink" version="1.1" width="3240" height="3240">
			
			<g transform="scale(12) translate(10, 10)">
				<defs id="SvgjsDefs1015"></defs><g id="SvgjsG1016" featureKey="root" fill="#ffffff"></g><g id="SvgjsG1017" featureKey="container1" fill="#eae9f1" transform="matrix(2.5,0,0,2.5,0,0)"><path xmlns="http://www.w3.org/2000/svg" fill="" d="M0 0h100v100H0z"></path></g><g id="SvgjsG1018" featureKey="symbol1" fill="#484558" transform="matrix(2.1875,0,0,2.1875,90,43)"><g xmlns="http://www.w3.org/2000/svg" display="none"><rect x="-27.333" y="-102.661" display="inline" fill="#484558" width="473.333" height="236"></rect></g><g xmlns="http://www.w3.org/2000/svg" display="none"><g display="inline"><rect x="22.318" y="13.214" transform="matrix(0.7071 -0.7071 0.7071 0.7071 -9.1591 22.6972)" fill="#484558" width="1" height="18.382"></rect></g><g display="inline"><rect x="0.005" y="15.5" transform="matrix(0.7071 -0.7071 0.7071 0.7071 -6.6272 16.0001)" fill="#484558" width="31.99" height="1"></rect></g><g display="inline"><rect x="25.806" fill="#484558" width="6.194" height="6.194"></rect></g><g display="inline"><rect x="25.806" y="25.806" fill="#484558" width="6.194" height="6.194"></rect></g><g display="inline"><rect y="25.806" fill="#484558" width="6.194" height="6.194"></rect></g></g><g xmlns="http://www.w3.org/2000/svg"><g><rect x="21.014" y="13.754" transform="matrix(0.7071 -0.7071 0.7071 0.7071 -8.6193 21.3917)" width="1" height="14.694"></rect></g><g><rect x="0.922" y="15.669" transform="matrix(0.7071 -0.7071 0.7071 0.7071 -6.7967 15.9298)" width="29.817" height="1"></rect></g><g><path d="M31,1v4.194h-4.194V1H31 M32,0h-6.194v6.194H32V0L32,0z"></path></g><g><path d="M31,26.806V31h-4.194v-4.194H31 M32,25.806h-6.194V32H32V25.806L32,25.806z"></path></g><g><path d="M5.194,26.806V31H1v-4.194H5.194 M6.194,25.806H0V32h6.194V25.806L6.194,25.806z"></path></g></g><g xmlns="http://www.w3.org/2000/svg" display="none"><line display="inline" fill="#484558" stroke="#484558" stroke-miterlimit="10" x1="26.709" y1="26.296" x2="16.319" y2="15.906"></line><line display="inline" fill="#484558" stroke="#484558" stroke-miterlimit="10" x1="5.289" y1="26.711" x2="26.372" y2="5.628"></line><g display="inline"><rect x="26.307" y="0.5" fill="#484558" width="5.193" height="5.193"></rect><g><path d="M31,1v4.194h-4.194V1H31 M32,0h-6.194v6.194H32V0L32,0z"></path></g></g><g display="inline"><rect x="26.307" y="26.306" fill="#484558" width="5.193" height="5.194"></rect><g><path d="M31,26.806V31h-4.194v-4.194H31 M32,25.806h-6.194V32H32V25.806L32,25.806z"></path></g></g><g display="inline"><rect x="0.5" y="26.306" fill="#484558" width="5.193" height="5.194"></rect><g><path d="M5.194,26.806V31H1v-4.194H5.194 M6.194,25.806H0V32h6.194V25.806L6.194,25.806z"></path></g></g></g><g xmlns="http://www.w3.org/2000/svg" display="none"><line display="inline" fill="#484558" stroke="#484558" stroke-miterlimit="10" x1="26.709" y1="26.296" x2="16.319" y2="15.906"></line><line display="inline" fill="#484558" stroke="#484558" stroke-miterlimit="10" x1="5.289" y1="26.711" x2="26.372" y2="5.628"></line><rect x="25.806" display="inline" fill="#484558" width="6.194" height="6.194"></rect><rect x="25.806" y="25.806" display="inline" fill="#484558" width="6.194" height="6.194"></rect><rect y="25.806" display="inline" fill="#484558" width="6.194" height="6.194"></rect></g></g><g id="SvgjsG1019" featureKey="text1" fill="#484558" transform="matrix(3.5665835768080014,0,0,3.5665835768080014,21.790074440736884,107.33416423191998)"><path d="M8.62 10 c0.2 0 0.3 0.1 0.3 0.3 l0 13.4 c0 0.2 -0.1 0.3 -0.3 0.3 l-0.68 0 c-0.18 0 -0.3 -0.1 -0.3 -0.3 l0 -1.08 c-0.4 0.88 -1.16 1.48 -2.54 1.48 l-0.66 0 c-2.12 0 -3.54 -1.38 -3.54 -3.66 l0 -2.88 c0 -2.32 1.42 -3.64 3.54 -3.64 l0.66 0 c1.38 0 2.14 0.52 2.54 1.38 l0 -5 c0 -0.2 0.12 -0.3 0.3 -0.3 l0.68 0 z M5.38 22.9 c1.44 0 2.26 -0.82 2.26 -2.34 l0 -3.04 c0 -1.62 -0.82 -2.4 -2.26 -2.4 l-0.92 0 c-1.46 0 -2.28 0.78 -2.28 2.4 l0 3.04 c0 1.52 0.82 2.34 2.28 2.34 l0.92 0 z M15.34 13.92 c1.76 0 3.46 1.3 3.46 3.62 l0 1.36 c0 0.38 -0.24 0.62 -0.64 0.62 l-5.82 0 l0 1.12 c0 1.44 0.82 2.26 2.28 2.26 l0.72 0 c1.34 0 1.7 -0.5 2.28 -1.18 c0.12 -0.16 0.22 -0.2 0.42 -0.06 l0.38 0.28 c0.2 0.14 0.2 0.26 0.08 0.42 c-0.72 0.88 -1.42 1.74 -3.16 1.74 l-0.72 0 c-2.14 0 -3.6 -1.4 -3.6 -3.6 l0 -2.94 c0 -2.32 1.46 -3.64 3.6 -3.64 l0.72 0 z M17.5 18.42 l0 -0.9 c0 -1.62 -0.92 -2.4 -2.16 -2.4 l-0.72 0 c-1.46 0 -2.28 0.78 -2.28 2.4 l0 0.9 l5.16 0 z M25.340000000000003 13.92 c2.32 0 3.12 1.26 3.12 3.54 l0 6.24 c0 0.2 -0.1 0.3 -0.3 0.3 l-0.68 0 c-0.2 0 -0.3 -0.1 -0.3 -0.3 l0 -6.24 c0 -1.56 -0.4 -2.34 -1.98 -2.34 l-0.32 0 c-1.52 0 -2.4 0.9 -2.7 1.42 l0 7.16 c0 0.2 -0.1 0.3 -0.3 0.3 l-0.68 0 c-0.2 0 -0.3 -0.1 -0.3 -0.3 l0 -9.4 c0 -0.2 0.1 -0.3 0.3 -0.3 l0.68 0 c0.2 0 0.3 0.1 0.3 0.3 l0 1.2 c0.68 -1.02 1.74 -1.58 3 -1.58 l0.16 0 z  M34.24 18.34 c2.22 0.26 3.82 0.6 3.82 2.86 c0 2.08 -1.5 2.9 -3.44 2.9 l-0.78 0 c-1.9 0 -3.08 -0.9 -3.36 -2.52 c-0.04 -0.18 0.06 -0.3 0.26 -0.3 l0.74 0 c0.18 0 0.3 0.1 0.34 0.28 c0.24 0.92 0.82 1.34 2.02 1.34 l0.8 0 c1.26 0 2.14 -0.4 2.14 -1.7 c0 -1.34 -1.02 -1.54 -2.54 -1.7 c-2.3 -0.22 -3.62 -0.68 -3.62 -2.84 c0 -1.94 1.3 -2.72 3.28 -2.72 l0.62 0 c1.9 0 3.18 0.9 3.26 2.7 c0 0.2 -0.06 0.32 -0.28 0.32 l-0.68 0 c-0.2 0 -0.32 -0.1 -0.36 -0.32 c-0.1 -1.04 -0.74 -1.54 -1.98 -1.54 l-0.54 0 c-1.28 0 -2.06 0.4 -2.06 1.56 c0 1.24 0.84 1.52 2.36 1.68 z M47.82000000000001 14 c0.22 0 0.24 0.16 0.18 0.32 l-5.26 13.34 c-0.12 0.28 -0.28 0.34 -0.42 0.34 l-0.68 0 c-0.24 0 -0.28 -0.16 -0.2 -0.36 l1.6 -4.08 l-3.66 -9.24 c-0.06 -0.16 -0.04 -0.32 0.18 -0.32 l0.78 0 c0.18 0 0.24 0.08 0.34 0.32 l3 7.64 l3.02 -7.64 c0.1 -0.24 0.16 -0.32 0.34 -0.32 l0.78 0 z M53.10000000000001 18.34 c2.22 0.26 3.82 0.6 3.82 2.86 c0 2.08 -1.5 2.9 -3.44 2.9 l-0.78 0 c-1.9 0 -3.08 -0.9 -3.36 -2.52 c-0.04 -0.18 0.06 -0.3 0.26 -0.3 l0.74 0 c0.18 0 0.3 0.1 0.34 0.28 c0.24 0.92 0.82 1.34 2.02 1.34 l0.8 0 c1.26 0 2.14 -0.4 2.14 -1.7 c0 -1.34 -1.02 -1.54 -2.54 -1.7 c-2.3 -0.22 -3.62 -0.68 -3.62 -2.84 c0 -1.94 1.3 -2.72 3.28 -2.72 l0.62 0 c1.9 0 3.18 0.9 3.26 2.7 c0 0.2 -0.06 0.32 -0.28 0.32 l-0.68 0 c-0.2 0 -0.32 -0.1 -0.36 -0.32 c-0.1 -1.04 -0.74 -1.54 -1.98 -1.54 l-0.54 0 c-1.28 0 -2.06 0.4 -2.06 1.56 c0 1.24 0.84 1.52 2.36 1.68 z"></path></g>
			</g>
		</svg>
	